<svg xmlns="http://www.w3.org/2000/svg" viewBox="0 0 571 380"><style>.st0{enable-background:new}.st1{fill:#ffeeb6}.st2,.st3{fill-rule:evenodd;clip-rule:evenodd;fill:#e0cb87}.st3{fill:#fff}.st4{fill:#000f50}.st10,.st11,.st5,.st6,.st7,.st8,.st9{fill-rule:evenodd;clip-rule:evenodd;fill:#d6dbe4}.st10,.st11,.st6,.st7,.st8,.st9{fill:#96e0ff}.st10,.st11,.st7,.st8,.st9{fill:#6dc7ec}.st10,.st11,.st8,.st9{fill:#ffbf6b}.st10,.st11,.st9{fill:#e2a154}.st10,.st11{fill:#fb5151}.st11{fill:#e03434}.st12{fill:#e0cb87}.st13{fill:#6dc7ec}.st14{fill:#dff6ff}.st15{fill-rule:evenodd;clip-rule:evenodd}.st15,.st16{fill:#a0d4e8}.st17,.st18{fill-rule:evenodd;clip-rule:evenodd;fill:#316cd9}.st18{fill:#427ce7}.st19{fill:#dff6ff}.st19,.st20,.st21,.st22,.st23{fill-rule:evenodd;clip-rule:evenodd}.st20{display:none}.st21,.st22,.st23{fill:#ff3a5f}.st22,.st23{fill:#e21a4a}.st23{fill:#e6eaf0}.st24{fill:#e72b2c}.st25{fill:#fff}.st26{fill:#d6dbe4}.st27,.st28,.st29{fill-rule:evenodd;clip-rule:evenodd;fill:#dbeeff}.st28,.st29{fill:#ffc148}.st29{fill:#ffdb96}.st30{fill:#ec9b00}.st31,.st32,.st33{fill-rule:evenodd;clip-rule:evenodd;fill:#ea3131}.st32,.st33{fill:#ff5959}.st33{fill:#d9e3ec}.st34{fill:#64caff}.st35,.st36{fill-rule:evenodd;clip-rule:evenodd;fill:#77d1ff}.st36{fill:#16a2ea}.st37{fill:#bfe9ff}.st37,.st38{fill-rule:evenodd;clip-rule:evenodd}.st38,.st39{fill:#dbe2ef}.st40,.st41{fill-rule:evenodd;clip-rule:evenodd;fill:#3e7ce4}.st41{fill:#2ed360}</style><g id="Rectangle_64_1_" class="st0"><path class="st1" d="M115 32h428v291H115z" id="Rectangle_64"/></g><g id="Rounded_Rectangle_78_1_" class="st0"><path class="st2" d="M220 232h112c2.2 0 4 1.8 4 4v16c0 2.2-1.8 4-4 4H220c-2.2 0-4-1.8-4-4v-16c0-2.2 1.8-4 4-4z"/><path class="st3" d="M220 250c-1.1 0-2-.9-2-2v-16c0-1.1.9-2 2-2h112c1.1 0 2 .9 2 2v16c0 1.1-.9 2-2 2H220z"/><path class="st4" d="M332 232v16H220v-16h112m0-4H220c-2.2 0-4 1.8-4 4v16c0 2.2 1.8 4 4 4h112c2.2 0 4-1.8 4-4v-16c0-2.2-1.8-4-4-4z"/><path class="st5" d="M229 244h103v4H229z"/></g><g id="Rounded_Rectangle_79_1_" class="st0"><path class="st3" d="M139 230c-1.2 0-2.1-.9-2.1-2V56c0-1.1.9-2 2.1-2h183.8c1.2 0 2.1.9 2.1 2v172c0 1.1-.9 2-2.1 2H139z"/><path class="st4" d="M322.8 56h.1v171.9h-184V56h183.9m0-4H139c-2.3 0-4.1 1.8-4.1 4v172c0 2.2 1.8 4 4.1 4h183.8c2.3 0 4.1-1.8 4.1-4V56c0-2.2-1.8-4-4.1-4z"/><path class="st5" d="M139.1 158.9c4.4-3.6 7.9-8.3 9.9-13.7 4.5 12.2 16.2 20.8 30 20.8s25.5-8.7 30-20.8c4.5 12.2 16.2 20.8 30 20.8s25.5-8.7 30-20.8c4.5 12.2 16.2 20.8 30 20.8 9.5 0 18-4.2 23.9-10.7v-48.2H139.1v51.8z"/></g><g id="Rectangle_73_1_" class="st0"><path class="st6" d="M149 102h164v128H149z"/><path class="st4" d="M311 104v124H151V104h160m4-4H147v132h168V100z"/><path class="st7" d="M239 166c13.8 0 25.5-8.7 30-20.8 4.5 12.2 16.2 20.8 30 20.8 4.2 0 8.3-.8 12-2.4V123h-72v43zM151 149.5c5.5 9.8 15.9 16.5 28 16.5 13.8 0 25.5-8.7 30-20.8 2.6 7 7.6 12.8 14 16.5v-42.6h-72v30.4z"/></g><g id="Rectangle_74_1_" class="st0"><path class="st3" d="M225 125h12v105h-12z"/><path class="st4" d="M235 127v101h-8V127h8m4-4h-16v109h16V123z"/><path class="st5" d="M315 161.7c3-1.7 5.7-3.9 8-6.5V129h-8v32.7zM227 163.7c2.5 1 5.2 1.7 8 2.1V129h-8v34.7z"/></g><g id="Rounded_Rectangle_73_copy_1_" class="st0"><path class="st8" d="M111 334c-1.1 0-2-.9-2-2V32c0-1.1.9-2 2-2h8c1.1 0 2 .9 2 2v300c0 1.1-.9 2-2 2h-8z"/><path class="st4" d="M119 32v300h-8V32h8m0-4h-8c-2.2 0-4 1.8-4 4v300c0 2.2 1.8 4 4 4h8c2.2 0 4-1.8 4-4V32c0-2.2-1.8-4-4-4z"/><path class="st8" d="M539 326c-1.1 0-2-.9-2-2V32c0-1.1.9-2 2-2h8c1.1 0 2 .9 2 2v292c0 1.1-.9 2-2 2h-8z"/><path class="st4" d="M547 32v292h-8V32h8m0-4h-8c-2.2 0-4 1.8-4 4v292c0 2.2 1.8 4 4 4h8c2.2 0 4-1.8 4-4V32c0-2.2-1.8-4-4-4z"/><path class="st9" d="M111 32h8v8h-8zM364 87h8v8h-8zM539 32h8v8h-8z"/></g><g id="Rounded_Rectangle_73_1_" class="st0"><path class="st10" d="M99 30c-1.1 0-2-.9-2-2V4c0-1.1.9-2 2-2h460c1.1 0 2 .9 2 2v24c0 1.1-.9 2-2 2H99z"/><path class="st4" d="M559 4v24H99V4h460m0-4H99c-2.2 0-4 1.8-4 4v24c0 2.2 1.8 4 4 4h460c2.2 0 4-1.8 4-4V4c0-2.2-1.8-4-4-4z"/><path class="st11" d="M99 20h460v8H99v-8z"/></g><g id="Rectangle_63_1_" class="st0"><path class="st10" d="M99 330c-1.1 0-2-.9-2-2v-24c0-1.1.9-2 2-2h460c1.1 0 2 .9 2 2v24c0 1.1-.9 2-2 2H99z"/><path class="st4" d="M559 304v24H99v-24h460m0-4H99c-2.2 0-4 1.8-4 4v24c0 2.2 1.8 4 4 4h460c2.2 0 4-1.8 4-4v-24c0-2.2-1.8-4-4-4z"/><g><path class="st11" d="M503 320v8h56v-8h-56zm-300 8h156v-8H203v8z"/></g></g><g id="Rectangle_62_1_" class="st0"><path class="st12" d="M123 32h412v8H123z" id="Rectangle_62"/></g><g id="Rounded_Rectangle_74_1_" class="st0"><path class="st3" d="M363 330c-1.1 0-2-.9-2-2V128c0-1.1.9-2 2-2h136c1.1 0 2 .9 2 2v200c0 1.1-.9 2-2 2H363z"/><path class="st4" d="M499 128v200H363V128h136m0-4H363c-2.2 0-4 1.8-4 4v200c0 2.2 1.8 4 4 4h136c2.2 0 4-1.8 4-4V128c0-2.2-1.8-4-4-4z"/><path class="st5" d="M363 165.7c2.8-.3 5.5-1 8-2.1v-23.4h-8v25.5z"/></g><g id="Rectangle_66_1_" class="st0"><path class="st6" d="M373 126h116v192H373z"/><path class="st4" d="M487 128v188H375V128h112m4-4H371v196h120V124z"/></g><g id="Rectangle_71_1_" class="st0"><path class="st13" d="M375 234h112v4H375z" id="Rectangle_71"/></g><g id="Rectangle_70_1_" class="st0"><path class="st14" d="M375 234v40l40-40h-40zm47 0l-47 47v15l62-62h-15z" id="Rectangle_70"/><path class="st15" d="M415 234h-40v4h36z"/><path class="st16" d="M433 238l4-4h-15l-4 4z"/></g><g id="Rounded_Rectangle_75_1_" class="st0"><path class="st17" d="M371 232c-1.1 0-2-.9-2-2v-24c0-1.1.9-2 2-2h120c1.1 0 2 .9 2 2v24c0 1.1-.9 2-2 2H371z"/><path class="st4" d="M491 206v24H371v-24h120m0-4H371c-2.2 0-4 1.8-4 4v24c0 2.2 1.8 4 4 4h120c2.2 0 4-1.8 4-4v-24c0-2.2-1.8-4-4-4z"/></g><g id="Rectangle_72_1_" class="st0"><path class="st18" d="M371 206h65l-10 24h-55z"/></g><g id="Rounded_Rectangle_76_1_" class="st0"><path class="st4" d="M409 216h-28c-1.1 0-2 .9-2 2s.9 2 2 2h28c1.1 0 2-.9 2-2s-.9-2-2-2z" id="Rounded_Rectangle_76"/></g><g id="Rectangle_76_1_" class="st0"><path class="st19" d="M239 213l72-72v15l-72 72v-15zm0-79v-7h72v7l-72 72v-72z"/><path class="st16" d="M311 141l-23 23c3.4 1.3 7.1 2 11 2 .7 0 1.4 0 2.1-.1l9.9-9.9v-15zM239 134v32c13.8 0 25.5-8.7 30-20.8 2.6 7.1 7.7 13 14.2 16.7L311 134v-7h-72v7z"/></g><g id="Rectangle_60_copy_3_1_" class="st0"><path class="st20" d="M107 101l15.2-25h413.7l15.2 25v62.7c-3.7 1.5-7.8 2.3-12 2.3-13.8 0-25.5-8.7-30-20.8-4.5 12.2-16.2 20.8-30 20.8s-25.5-8.7-30-20.8c-4.5 12.2-16.2 20.8-30 20.8s-25.5-8.7-30-20.8c-4.5 12.2-16.2 20.8-30 20.8s-25.5-8.7-30-20.8c-4.5 12.2-16.2 20.8-30 20.8s-25.5-8.7-30-20.8c-4.5 12.2-16.2 20.8-30 20.8s-25.5-8.7-30-20.8c-4.5 12.2-16.2 20.8-30 20.8s-25.5-8.7-30-20.8c-4.5 12.2-16.2 20.8-30 20.8-4.2 0-8.3-.8-12-2.3V101z"/><path class="st9" d="M539 166c2.8 0 5.4-.4 8-1v-40h-8v41z"/><path class="st2" d="M535 121h-32v34.1c2.6-2.9 4.6-6.3 6-10 4.1 11 14 19.1 26 20.6V121zM327 149.5c.8-1.4 1.4-2.8 2-4.3 4.5 12.2 16.2 20.8 30 20.8v-45h-32v28.5z"/><path class="st5" d="M491 163.7c2.9-1.2 5.6-2.8 8-4.7v-22h-8v26.7z"/><path class="st7" d="M375 161.7c6.4-3.7 11.4-9.5 14-16.5 4.5 12.2 16.2 20.8 30 20.8s25.5-8.7 30-20.8c4.5 12.2 16.2 20.8 30 20.8 2.8 0 5.4-.4 8-1v-50.5H375v47.2z"/></g><g id="Rectangle_57_1_" class="st0"><path class="st21" d="M119 148c-16.4 0-29.7-13.2-30-29.4l39.6-65.4c1.6-2.1 3.4-3.1 5.3-3.1H218c-66.3 64.5-68.4 66.5-68.5 66.6l-.6.6v.9c.1 16.3-13.4 29.8-29.9 29.8z"/><path class="st4" d="M213.1 52c-58.8 57.2-64.4 62.6-64.9 63.1l-1.3 1.1v1.8c0 15.4-12.6 28-28 28-15.1 0-27.4-12-28-26.9l39.3-64.8c1.8-2.3 3.2-2.3 3.7-2.3h79.2m9.9-4h-89c-2.6 0-5 1.4-7 4l-40 66c0 17.7 14.3 32 32 32s32-14.3 32-32c0 0 .2-.2 72-70z"/><path class="st22" d="M91.1 119.1H147c-.5 15-12.8 27-27.9 27s-27.5-12-28-27z"/></g><g id="Rectangle_57_copy_2_1_" class="st0"><path class="st3" d="M179 148c-16.4 0-29.8-13.2-30-29.6L180.2 50h97.9c-34.7 34-48.1 50.6-54.6 58.7-2.1 2.6-3.5 4.3-4.6 5.4l-2.7 2.6.6.1c-.3.2-.5.5-.8.7-.8-.6-1.9-1.2-3.2-1.2-1.4 0-3.2.7-4.2 4.1-.3.9-.6 2.1-.1 3.1-2.6 14.2-15 24.5-29.5 24.5z"/><path class="st4" d="M273.2 52C241 83.8 228.3 99.6 222 107.4c-2 2.5-3.4 4.2-4.4 5.2l-2.2 2.2c-.7-.3-1.5-.5-2.5-.5-1.7 0-4.7.7-6.2 5.6-.3.8-.7 2.4-.3 3.9-2.7 13-14.1 22.3-27.4 22.3-15.2 0-27.5-12.1-28-27.2L181.5 52h91.7m9.8-4H178.9L147 118c0 17.7 14.3 32 32 32 15.8 0 28.9-11.4 31.5-26.5.2-1.5-.8 0 0-2.5.6-2.1 1.5-2.7 2.3-2.7 1.4 0 2.8 1.7 3.5 1.7.1 0 .2 0 .3-.1 2.2-2.5 5.6-3.9 3.7-4.3 5-4.9 13.6-19.8 62.7-67.6z"/><path class="st23" d="M151 119h55.9c0 14.3-12.5 27-27.9 27-15.2 0-27.5-12-28-27z"/></g><g id="Rectangle_58_1_" class="st0"><path class="st21" d="M239 148c-16.4 0-29.8-13.3-30-29.7l20-66V52c0-1.1.9-2 2-2h86c.9 0 1.7.6 1.9 1.4L269 117.3v.7c0 16.5-13.5 30-30 30z"/><path class="st4" d="M316 52l-48.2 63.6-.8 1.1v1.3c0 15.4-12.6 28-28 28-15.2 0-27.7-12.3-28-27.4l19.8-65.4.2-.6V52h85m1-4h-86c-2.2 0-4 1.8-4 4l-20 66c0 17.7 14.3 32 32 32s32-14.3 32-32l50-66c0-2.2-1.8-4-4-4z"/><path class="st22" d="M211 119.1h55.9c-.5 15-12.8 27-27.9 27-15.2 0-27.4-12-28-27z"/></g><g id="Rectangle_60_1_" class="st0"><path class="st3" d="M299 148c-16.5 0-29.9-13.4-30-29.9l10-66V52c0-1.1.9-2 2-2h48v68c0 16.5-13.5 30-30 30z"/><path class="st4" d="M327 52v66c0 15.4-12.6 28-28 28-15.3 0-27.8-12.4-28-27.7l10-65.7V52h46m4-4h-50c-2.2 0-4 1.8-4 4l-10 66c0 17.7 14.3 32 32 32s32-14.3 32-32V55.6 52v-.2V48z"/><path class="st23" d="M271.1 119H327c-.5 15-12.8 27-27.9 27-15.2 0-27.5-12-28-27z"/></g><g id="Rectangle_57_copy_1_" class="st0"><path class="st3" d="M539 148c-14.8 0-27.6-11-29.7-25.7l-.3-2.2-16 4.3v-18s-3.7-4.1-5.1-5.6c-10.8-12.1-16.4-18.3-48.2-50.8H524c1.9 0 3.7 1.1 5.3 3.1l39.6 65.4c-.2 16.3-13.5 29.5-29.9 29.5z"/><path class="st4" d="M524 52c.5 0 1.9 0 3.7 2.3l39.3 64.8c-.6 14.9-12.9 26.9-28 26.9-13.8 0-25.7-10.3-27.7-24l-.6-4.5-4.4 1.2-11.3 3v-16.1l-1-1.1c-1.7-1.8-3.1-3.5-4.6-5.1-10.4-11.6-16-17.9-44.9-47.4H524m0-4h-89c39 39.8 41.2 42.8 56 59.2V127l16.3-4.4c2.2 15.5 15.6 27.4 31.7 27.4 17.7 0 32-14.3 32-32l-40-66c-2-2.6-4.4-4-7-4z"/><path class="st23" d="M511.1 119.1H567c-.5 15-12.8 27-27.9 27s-27.5-12-28-27z"/></g><g id="Rectangle_57_copy_3_1_" class="st0"><path class="st21" d="M479 148c-15.9 0-29.1-12.5-30-28.4v-.6l-3.5-4.4-2.9-3.2c-1.5-1.5-3.6-3.5-6.7-6.6-8.4-8.3-23.9-23.5-56-54.7h97.9l31.2 68.4c-.2 16.3-13.6 29.5-30 29.5z"/><path class="st4" d="M476.6 52l30.4 66.8c-.4 15.1-12.8 27.2-28 27.2-14.9 0-27.2-11.6-28-26.5l-.1-1.3-.8-1-3-3.9-.1-.1-.1-.1-2.8-3.1-.1-.1-.1-.1c-1.5-1.5-3.6-3.5-6.7-6.6-8.1-8-22.7-22.4-52.4-51.3h91.8m2.5-3.9H375c47.1 45.8 60.5 59.3 66.2 64.8l2.8 3.1 3 3.9c.9 16.9 14.9 30.2 32 30.2 17.7 0 32-14.3 32-32l-31.9-70z"/><path class="st22" d="M451.1 119.1H507c-.5 15-12.8 27-27.9 27-15.2 0-27.5-12-28-27z"/></g><g id="Rectangle_58_copy_1_" class="st0"><path class="st3" d="M419 148c-15.8 0-29-12.4-29.9-28.1v-.7l-6.7-7.6-43.2-60.2c.2-.8 1-1.5 1.9-1.5h86c1.1 0 2 .9 2 2v.3l20 66c-.3 16.5-13.7 29.8-30.1 29.8z"/><path class="st4" d="M427 52v.6l.2.6 19.8 65.4c-.3 15.2-12.7 27.4-28 27.4-14.8 0-27-11.5-27.9-26.2l-.1-1.4-.9-1-6.2-7-42-58.4H427m0-4h-86c-2.2 0-4 1.8-4 4l43.8 60.9 6.3 7.1c1 16.7 14.9 30 31.9 30 17.7 0 32-14.3 32-32l-20-66c0-2.2-1.8-4-4-4z"/><path class="st23" d="M391.1 119.1H447c-.5 15-12.8 27-27.9 27-15.2 0-27.5-12-28-27z"/></g><g id="Rectangle_60_copy_1_" class="st0"><path class="st21" d="M359 148c-16.5 0-30-13.5-30-30V50h48c1.1 0 2 .9 2 2v.2l10 66c-.1 16.4-13.5 29.8-30 29.8z"/><path class="st4" d="M377 52v.6l10 65.7c-.2 15.3-12.7 27.7-28 27.7-15.4 0-28-12.6-28-28V52h46m0-4h-50v70c0 17.7 14.3 32 32 32s32-14.3 32-32l-10-66c0-2.2-1.8-4-4-4z"/><path class="st22" d="M331.1 119H387c-.5 15-12.8 27-27.9 27s-27.5-12-28-27z"/></g><g id="Rounded_Rectangle_77_1_" class="st0"><path class="st3" d="M463.3 197.9h-.3l-69.3-10c-.5-.1-1-.4-1.3-.8-.3-.4-.5-1-.4-1.5l4.6-31.7c.1-1 1-1.7 2-1.7h.3l69.3 10c.5.1 1 .4 1.3.8.3.4.5 1 .4 1.5l-4.6 31.7c-.1.9-1 1.7-2 1.7z"/><path class="st4" d="M398.7 154.1l69.3 10-4.6 31.7-69.3-10 4.6-31.7m0-4c-2 0-3.7 1.4-4 3.4l-4.6 31.7c-.3 2.2 1.2 4.2 3.4 4.5l69.3 10h.6c2 0 3.7-1.4 4-3.4l4.6-31.7c.3-2.2-1.2-4.2-3.4-4.5l-69.3-10c-.3.1-.5 0-.6 0z"/></g><g id="Rectangle_78_1_" class="st0"><path transform="rotate(-81.756 430.966 175)" class="st24" d="M417 142h28v66h-28z" id="Rectangle_78"/></g><g id="CLOSED_1_" class="st0"><path class="st25" d="M411.8 176.7c.1-1.1-.2-2-.9-2.8-.6-.7-1.6-1.2-2.7-1.4-.8-.1-1.6 0-2.3.3-.7.3-1.3.8-1.7 1.5-.4.7-.7 1.5-.9 2.5l-.1.5c-.2 1.5 0 2.8.6 3.7.6 1 1.6 1.5 2.9 1.7.8.1 1.5.1 2.2-.1.7-.2 1.2-.5 1.6-1 .4-.5.7-1.1.8-1.7l-2.4-.3c-.1.6-.3.9-.6 1.2-.3.2-.8.3-1.3.2-.6-.1-1.1-.4-1.3-.9-.2-.5-.2-1.3-.1-2.3l.1-.7c.2-1 .4-1.7.7-2.1.3-.4.8-.6 1.4-.5.6.1 1 .3 1.2.6.2.3.3.8.3 1.4l2.5.2zm4.7-2.7l-2.4-.3-1.4 9.9 6.5.9.3-1.8-4.1-.6 1.1-8.1zm11.6 2.1c-.6-.5-1.3-.8-2.1-.9-.8-.1-1.6 0-2.3.3-.7.3-1.3.8-1.8 1.5s-.8 1.5-.9 2.5l-.1.6c-.1.9 0 1.8.2 2.6.3.8.7 1.4 1.3 1.9.6.5 1.3.8 2.1.9.8.1 1.6 0 2.3-.3.7-.3 1.3-.8 1.8-1.5s.8-1.5.9-2.5l.1-.5c.1-.9.1-1.8-.2-2.6-.3-.9-.7-1.5-1.3-2zm-1 4.2l-.1.5c-.1 1-.4 1.7-.8 2.1-.4.5-.9.7-1.5.6-.6-.1-1.1-.4-1.3-1-.2-.6-.3-1.3-.2-2.3l.1-.7c.3-1.8 1.1-2.6 2.3-2.4.6.1 1 .4 1.3 1 .3.5.3 1.2.2 2.2zm10.7-3c-.5-.3-1.1-.6-1.8-.7-.7-.1-1.4-.1-2 .1-.6.1-1.1.4-1.5.8-.4.4-.6.8-.7 1.4-.2 1.1.4 2 1.5 2.9.4.3.8.5 1.4.8.6.3 1 .6 1.2.8.2.2.3.5.3.9 0 .3-.2.5-.4.7-.3.1-.6.2-1 .1-.6-.1-1-.3-1.3-.6-.2-.3-.3-.7-.2-1.2l-2.4-.3c-.1.6 0 1.2.2 1.8.3.5.7 1 1.3 1.4.6.4 1.3.6 2.1.7 1.1.2 2.1 0 2.8-.4.7-.4 1.1-1 1.3-1.9.2-1.1-.3-2-1.2-2.8-.4-.3-.9-.6-1.6-1-.6-.3-1.1-.6-1.3-.8-.2-.2-.3-.5-.3-.7 0-.3.2-.5.5-.7.3-.2.6-.2 1-.1s.7.2.9.5c.2.3.3.6.2 1l2.4.3c.1-.6 0-1.2-.2-1.7-.3-.6-.7-1-1.2-1.3zm2.3 10.1l6.8 1 .3-1.8-4.4-.6.3-2.4 3.7.5.3-1.8-3.7-.5.3-2.1 4.4.6.3-1.8-6.8-1-1.5 9.9zm16.6-5.3c-.3-.8-.7-1.4-1.4-1.9-.6-.5-1.4-.8-2.3-.9l-3.2-.5-1.4 9.9 3.2.5c.9.1 1.7 0 2.4-.3.8-.3 1.4-.8 1.9-1.4.5-.7.8-1.4.9-2.3l.1-.5c.2-1 .1-1.8-.2-2.6zm-2.1 2.2l-.1.4c-.1 1-.4 1.7-.9 2.1-.4.4-1 .6-1.7.5l-.8-.1.9-6.2.8.1c.7.1 1.2.4 1.5 1 .3.5.4 1.2.3 2.2z" id="CLOSED"/></g><g id="Sorry_1_" class="st0"><path class="st25" d="M410.7 163.9c0 .1.1.2.2.2s.2-.1.3-.1c.4-.4.5-.4 1-.7.7-.3 1-.6.9-1.4 0-.2-.1-.3-.3-.4-.5-.1-1-.1-1.5-.1-2.6.2-4.7 1.5-5 2.1-.2.3-.3 1.2-.3 1.6.1.7.7.9 1.3.9.6.1 3.9.3 4 .9 0 .2-1.1 1.5-5.3 1.7l.2-.2c.1-.1.2-.1.2-.2s0-.1-.1-.1c-.2 0-.9.3-1 .4-.2.2-.5.9-.5 1.1.1.7 1.5.6 2 .5 1.7-.1 5.9-.8 5.7-3.2 0-.6-.7-1.2-1.9-1.4-3.4-.5-3.2-.6-3.3-.8 0-.3 1.2-1.5 4.3-1.8-.7.6-.9 1-.9 1zm14.2 3.6c-.2 0-.4-.1-.4-.3 0-.5.5-1.1.8-1.4.3-.2.5-.4.4-.8 0-.2-.1-.4-.3-.6-.1-.1-.8.1-1.9.3 0-.1.1-.2.1-.3 0-.1-.1-.2-.2-.2-.3 0-1.4 1-1.4 1.8 0 .3.1.3.4.3-.1.2-.2.4-.4.5l-.1-.2c-.4.3-1.1 1.2-1.6 1.2-.2 0-.4-.1-.4-.3 0-.5.5-1.1.8-1.4.3-.2.5-.4.4-.8 0-.2-.1-.4-.3-.6-.1-.1-.8.1-1.9.3 0-.1.1-.2.1-.3 0-.1-.1-.2-.2-.2-.3 0-1.4 1-1.4 1.8 0 .3.1.3.4.3-.1.1-.2.2-.2.3-.3.3-.6.7-1.1.6.2-.5.4-.9.4-1.4 0-.4-.1-.6-.5-.7.1-.1.3-.2.3-.3 0-.3-.4-.4-.7-.4-.7.1-1.6.5-2.2 1.1-.6.6-1 1.2-.9 2.1.1 1.1.8 1.7 1.4 1.6.8-.1 1.3-.5 1.8-1 .5 0 .9-.2 1.2-.4l.1-.1.6-.6c.2-.3.5-.5.7-.9l1.2-.4c-.4.6-1 1.3-.9 2.1 0 .5.4.9.9.9s1.5-.9 2-1.6v.2c.5-.6 1-.9 1.3-1.6l1.2-.4c-.4.6-1 1.3-.9 2.1 0 .5.4.9.9.9.7-.1 2-1.5 2.4-2l-.1-.4c-.6.3-1.3 1.2-1.8 1.2zm-9.7.6c-.3.3-.5.5-.9.5-.3 0-.5-.1-.6-.4 0-.4.2-.9.4-1.1.3-.4.9-.7 1.3-1 0 0-.5.8-.4 1.4 0 .2.1.4.2.6zm16.9-2.4l-2.5 2.6 1.6-2.8c.1-.3.4-.8.4-1.1 0-.2-.2-.6-.4-.6-.2.1-.9.9-2.1 2.2-.5.5-1 1.1-1.6 1.2 0-.3 0-.5.2-.7.4-.3 1.6-1.7 1.6-2.1 0-.2-.4-.5-.6-.5-.3 0-2.3 1.7-2.1 3.1.1.9.7 1.3 1.1 1.3.1 0 1-.7 1.9-1.6l-1.4 2.8c-.1.2-.3.6-.3.7 0 .2.2.8.4.8s.5-.5.6-.6l3.3-4.2-.1-.5z" id="Sorry"/></g><g id="WE_x2019_RE_1_" class="st0"><path class="st25" d="M439.8 167.2l-1.2 3.4-.3-3.6-1.2-.2-1.3 3.4-.1-3.6-1.3-.2.4 5.8 1.4.2 1.2-3.1.3 3.3 1.4.2 2-5.5-1.3-.1zm1.1 5.9l3.9.6.2-1-2.5-.4.2-1.3 2.1.3.1-1-2.1-.3.2-1.2 2.5.4.2-1-3.9-.6-.9 5.5zm5.4-5.3l-.1.7c-.1.4-.2.7-.5 1l.5.4c.2-.1.4-.4.6-.6s.3-.5.3-.7l.1-.6-.9-.2zm4 .9l-2.2-.3-.8 5.6 1.4.2.3-2 .7.1.7 2.1 1.5.2v-.1l-.8-2.4c.4-.1.6-.3.8-.5.2-.2.3-.5.4-.9.1-.5 0-1-.4-1.3-.5-.4-1-.6-1.6-.7zm.2 2.5c-.1.1-.4.2-.6.1l-.9-.1.2-1.6.9.1c.3 0 .4.1.5.3.1.2.1.4.1.6.1.3 0 .4-.2.6zm6.5-.5l.2-1-3.9-.6-.8 5.6 3.9.6.2-1-2.5-.4.2-1.3 2.1.3.1-1-2.1-.3.2-1.2 2.4.3z" id="WE_x2019_RE"/></g><g id="Rounded_Rectangle_80_1_" class="st0"><path class="st4" d="M451.5 157.2l-8.5-19.4c-.6-1-1.8-1.3-2.7-.7-1 .6-1.3 1.8-.7 2.7l8.5 19.4c.6 1 1.8 1.3 2.7.7.9-.5 1.2-1.8.7-2.7zM423 146.3c-.9-.5-2.1-.2-2.6.7l-4.1 6c-.5.9-.2 2.1.7 2.7s2.1.2 2.6-.7l4.1-6c.6-1 .3-2.2-.7-2.7z" id="Rounded_Rectangle_80"/></g><g id="Ellipse_15_1_" class="st0"><ellipse class="st26" cx="115" cy="370" rx="90" ry="10" id="Ellipse_15"/></g><g id="Ellipse_9_1_" class="st0"><path class="st27" d="M115 139c-21 0-38-17-38-38s17-38 38-38 38 17 38 38-17 38-38 38zm0-68c-16.5 0-30 13.5-30 30s13.5 30 30 30 30-13.5 30-30-13.5-30-30-30z"/><path class="st4" d="M115 65c19.9 0 36 16.1 36 36s-16.1 36-36 36-36-16.1-36-36 16.1-36 36-36m0 68c17.6 0 32-14.4 32-32s-14.4-32-32-32-32 14.4-32 32 14.4 32 32 32m0-72c-22.1 0-40 17.9-40 40s17.9 40 40 40 40-17.9 40-40-17.9-40-40-40zm0 68c-15.5 0-28-12.5-28-28s12.5-28 28-28 28 12.5 28 28-12.5 28-28 28z"/></g><g id="Rectangle_43_5_" class="st0"><path class="st3" d="M107 120h16v24h-16z"/><path class="st4" d="M121 122v20h-12v-20h12m4-4h-20v28h20v-28z"/><path class="st23" d="M109 122h12v4h-12z"/></g><g id="Rounded_Rectangle_27_5_" class="st0"><path class="st28" d="M103 120c-1.1 0-2-.9-2-2V98c0-1.1.9-2 2-2h24c1.1 0 2 .9 2 2v20c0 1.1-.9 2-2 2h-24z"/><path class="st4" d="M127 98v20h-24V98h24m0-4h-24c-2.2 0-4 1.8-4 4v20c0 2.2 1.8 4 4 4h24c2.2 0 4-1.8 4-4V98c0-2.2-1.8-4-4-4z"/><path class="st29" d="M103 98h12v20h-12V98z"/></g><g id="Rounded_Rectangle_28_1_" class="st0"><path class="st30" d="M111 102c-1.1 0-2 .9-2 2v8c0 1.1.9 2 2 2s2-.9 2-2v-8c0-1.1-.9-2-2-2zm8 0c-1.1 0-2 .9-2 2v8c0 1.1.9 2 2 2s2-.9 2-2v-8c0-1.1-.9-2-2-2z" id="Rounded_Rectangle_28"/></g><g id="Rectangle_43_4_" class="st0"><path transform="rotate(-45.001 196.509 178.487)" class="st3" d="M184.5 173.3h24v10.3h-24z"/><path class="st4" d="M201.3 169.2l4.5 4.5-14.1 14.1-4.5-4.5 14.1-14.1m0-5.7l-19.8 19.8 10.1 10.1 19.8-19.8-10.1-10.1z"/></g><g id="Rounded_Rectangle_27_4_" class="st0"><path class="st31" d="M212.9 177.1c-.5 0-1-.2-1.4-.6l-13-13c-.8-.8-.8-2 0-2.8l10.1-10.1c.4-.4.9-.6 1.4-.6.5 0 1 .2 1.4.6l13 13c.8.8.8 2 0 2.8l-10.1 10.1c-.4.4-.9.6-1.4.6z"/><path class="st4" d="M210.1 152l13 13-10.1 10.1-13-13 10.1-10.1m0-4c-1 0-2 .4-2.8 1.2l-10.1 10.1c-1.6 1.6-1.6 4.1 0 5.7l13 13c.8.8 1.8 1.2 2.8 1.2s2-.4 2.8-1.2l10.1-10.1c1.6-1.6 1.6-4.1 0-5.7l-13-13c-.8-.9-1.8-1.2-2.8-1.2z"/><path class="st32" d="M199.9 162.1L210 152l6.6 6.6-10.2 10.1-6.5-6.6z"/></g><g id="Rectangle_43_3_" class="st0"><path transform="rotate(-45.02 33.861 178.843)" class="st3" d="M28.6 166.7h10.5V191H28.6z"/><path class="st4" d="M29 169.4l14.3 14.4-4.6 4.6L24.4 174l4.6-4.6m0-5.7L18.7 174l20 20L49 183.7l-20-20z"/></g><g id="Rounded_Rectangle_27_3_" class="st0"><path class="st33" d="M17.3 177.4c-.5 0-1.1-.2-1.4-.6L5.6 166.6c-.8-.8-.8-2.1 0-2.9l13.1-13.1c.4-.4.9-.6 1.4-.6.5 0 1.1.2 1.4.6l10.2 10.3c.8.8.8 2.1 0 2.9l-13.1 13.1c-.2.3-.7.5-1.3.5z"/><path class="st4" d="M20.2 152l10.3 10.3v.1l-13.1 13.1h-.1L7 165.2v-.1L20.2 152c-.1 0 0 0 0 0m0-4c-1 0-2.1.4-2.9 1.2L4.2 162.3c-1.6 1.6-1.6 4.1 0 5.7l10.2 10.3c.8.8 1.8 1.2 2.9 1.2 1 0 2.1-.4 2.9-1.2l13.1-13.1c1.6-1.6 1.6-4.1 0-5.7L23 149.2c-.8-.8-1.8-1.2-2.8-1.2z"/><path class="st3" d="M20.2 151.9l10.3 10.3-6.6 6.6-10.3-10.3 6.6-6.6z"/></g><g id="Ellipse_7_1_" class="st0"><circle class="st34" cx="115" cy="257" r="114" id="Ellipse_7"/></g><g id="Ellipse_7_copy_2_1_" class="st0"><path class="st35" d="M115 370C52.7 370 2 319.3 2 257s50.7-113 113-113 113 50.7 113 113-50.7 113-113 113z"/><path class="st4" d="M115 146c29.6 0 57.5 11.5 78.5 32.5S226 227.3 226 257c0 29.6-11.5 57.5-32.5 78.5S144.7 368 115 368s-57.5-11.5-78.5-32.5S4 286.6 4 257s11.5-57.5 32.5-78.5S85.4 146 115 146m0-4C51.5 142 0 193.5 0 257s51.5 115 115 115 115-51.5 115-115-51.5-115-115-115z"/><path class="st36" d="M115 364c44.4 0 82.8-25.4 101.7-62.5C199.5 340.7 160.5 368 115 368s-84.5-27.3-101.7-66.5C32.2 338.6 70.6 364 115 364z"/><path class="st37" d="M13.3 212.5C30.5 173.3 69.5 146 115 146s84.5 27.3 101.7 66.5C197.8 175.4 159.4 150 115 150c-44.4 0-82.8 25.4-101.7 62.5z"/></g><g id="Ellipse_7_copy_1_" class="st0"><path class="st3" d="M115 355c-54 0-98-44-98-98s44-98 98-98 98 44 98 98-44 98-98 98z"/><path class="st4" d="M115 161c52.9 0 96 43.1 96 96s-43.1 96-96 96-96-43.1-96-96 43.1-96 96-96m0-4c-55.2 0-100 44.8-100 100s44.8 100 100 100 100-44.8 100-100-44.8-100-100-100z"/><path class="st38" d="M115 167.1c-39.4 0-73.4 22.7-89.7 55.8 13.8-36.1 48.7-61.8 89.7-61.8s75.9 25.7 89.7 61.8c-16.3-33.1-50.3-55.8-89.7-55.8z"/></g><g id="Rounded_Rectangle_25_1_" class="st0"><path class="st4" d="M115 169c-1.1 0-2 .9-2 2v8c0 1.1.9 2 2 2s2-.9 2-2v-8c0-1.1-.9-2-2-2zm0 164c-1.1 0-2 .9-2 2v8c0 1.1.9 2 2 2s2-.9 2-2v-8c0-1.1-.9-2-2-2zm86-78h-8c-1.1 0-2 .9-2 2s.9 2 2 2h8c1.1 0 2-.9 2-2s-.9-2-2-2zm-162 2c0-1.1-.9-2-2-2h-8c-1.1 0-2 .9-2 2s.9 2 2 2h8c1.1 0 2-.9 2-2zm120-76.2c-1-.6-2.2-.2-2.7.7l-4 6.9c-.6 1-.2 2.2.7 2.7 1 .6 2.2.2 2.7-.7l4-6.9c.6-.9.3-2.2-.7-2.7zm-82 142c-1-.6-2.2-.2-2.7.7l-4 6.9c-.6 1-.2 2.2.7 2.7 1 .6 2.2.2 2.7-.7l4-6.9c.6-.9.3-2.1-.7-2.7zm113.5-24.5l-6.9-4c-1-.6-2.2-.2-2.7.7-.6 1-.2 2.2.7 2.7l6.9 4c1 .6 2.2.2 2.7-.7.6-1 .2-2.2-.7-2.7zm-142.1-82l-6.9-4c-1-.6-2.2-.2-2.7.7-.6 1-.2 2.2.7 2.7l6.9 4c1 .6 2.2.2 2.7-.7.6-1 .3-2.2-.7-2.7zm135.1 3.4l6.9-4c1-.6 1.3-1.8.7-2.7-.6-1-1.8-1.3-2.7-.7l-6.9 4c-1 .6-1.3 1.8-.7 2.7.6 1 1.8 1.3 2.7.7zM46.4 294.3l-6.9 4c-1 .6-1.3 1.8-.7 2.7.6 1 1.8 1.3 2.7.7l6.9-4c1-.6 1.3-1.8.7-2.7-.5-1-1.7-1.3-2.7-.7zm109.3 29.2c-.6-1-1.8-1.3-2.7-.7s-1.3 1.8-.7 2.7l4 6.9c.6 1 1.8 1.3 2.7.7 1-.6 1.3-1.8.7-2.7l-4-6.9zm-82-142c-.6-1-1.8-1.3-2.7-.7-1 .6-1.3 1.8-.7 2.7l4 6.9c.6 1 1.8 1.3 2.7.7 1-.6 1.3-1.8.7-2.7l-4-6.9zm64.1-9.5c-1.1-.3-2.2.3-2.4 1.4l-2.1 7.7c-.3 1.1.3 2.2 1.4 2.4 1.1.3 2.2-.3 2.4-1.4l2.1-7.7c.3-1-.4-2.1-1.4-2.4zM95.3 330.4c-1.1-.3-2.2.3-2.4 1.4l-2.1 7.7c-.3 1.1.3 2.2 1.4 2.4 1.1.3 2.2-.3 2.4-1.4l2.1-7.7c.3-1-.3-2.1-1.4-2.4zm103.3-53.1l-7.7-2.1c-1.1-.3-2.2.3-2.4 1.4-.3 1.1.3 2.2 1.4 2.4l7.7 2.1c1.1.3 2.2-.3 2.4-1.4.3-1-.3-2.1-1.4-2.4zM31.4 236.7l7.7 2.1c1.1.3 2.2-.3 2.4-1.4.3-1.1-.3-2.2-1.4-2.4l-7.7-2.1c-1.1-.3-2.2.3-2.4 1.4s.3 2.1 1.4 2.4zm63.3-62.3c-.3-1.1-1.4-1.7-2.4-1.4-1.1.3-1.7 1.4-1.4 2.4l2.1 7.7c.3 1.1 1.4 1.7 2.4 1.4s1.7-1.4 1.4-2.4l-2.1-7.7zm42.4 158.4c-.3-1.1-1.4-1.7-2.4-1.4-1.1.3-1.7 1.4-1.4 2.4l2.1 7.7c.3 1.1 1.4 1.7 2.4 1.4 1.1-.3 1.7-1.4 1.4-2.4l-2.1-7.7zm51.3-94.5c.3 1.1 1.4 1.7 2.4 1.4l7.7-2.1c1.1-.3 1.7-1.4 1.4-2.4-.3-1.1-1.4-1.7-2.4-1.4l-7.7 2.1c-1 .3-1.7 1.4-1.4 2.4zM41.6 277.7c-.3-1.1-1.4-1.7-2.4-1.4l-7.7 2.1c-1.1.3-1.7 1.4-1.4 2.4.3 1.1 1.4 1.7 2.4 1.4l7.7-2.1c1-.3 1.7-1.4 1.4-2.4zm132.8-82.9l-5.7 5.7c-.8.8-.8 2 0 2.8.8.8 2 .8 2.8 0l5.7-5.7c.8-.8.8-2 0-2.8-.8-.8-2-.8-2.8 0zm-116 115.9l-5.7 5.7c-.8.8-.8 2 0 2.8.8.8 2 .8 2.8 0l5.7-5.7c.8-.8.8-2 0-2.8-.7-.7-2-.7-2.8 0zm113.2 0c-.8-.8-2-.8-2.8 0-.8.8-.8 2 0 2.8l5.7 5.7c.8.8 2 .8 2.8 0 .8-.8.8-2 0-2.8l-5.7-5.7zm-116-115.9c-.8-.8-2-.8-2.8 0-.8.8-.8 2 0 2.8l5.7 5.7c.8.8 2 .8 2.8 0 .8-.8.8-2 0-2.8l-5.7-5.7z" id="Rounded_Rectangle_25"/></g><g id="Ellipse_12_1_" class="st0"><path class="st4" d="M129 294.7c-3.6-3.5-8.5-5.7-14-5.7s-10.4 2.2-14 5.7c-.4.4-.6.9-.6 1.4 0 1.1.9 2 2 2 .5 0 .9-.2 1.3-.5l.1-.1c2.9-2.8 6.8-4.5 11.1-4.5s8.3 1.7 11.1 4.5l.1.1c.3.3.8.5 1.3.5 1.1 0 2-.9 2-2 .2-.5-.1-1-.4-1.4z" id="Ellipse_12"/></g><g id="Rounded_Rectangle_29_1_" class="st0"><path class="st39" d="M197 255H93c-3.3 0-6 2.7-6 6s2.7 6 6 6h104c3.3 0 6-2.7 6-6s-2.7-6-6-6z" id="Rounded_Rectangle_29"/></g><g id="Rounded_Rectangle_26_1_" class="st0"><circle class="st38" cx="115" cy="261" r="12"/><path class="st32" d="M93 261c-2.2 0-4-1.8-4-4s1.8-4 4-4h104c2.2 0 4 1.8 4 4s-1.8 4-4 4H93z"/><path class="st4" d="M197 255c1.1 0 2 .9 2 2s-.9 2-2 2H93c-1.1 0-2-.9-2-2s.9-2 2-2h104m0-4H93c-3.3 0-6 2.7-6 6s2.7 6 6 6h104c3.3 0 6-2.7 6-6s-2.7-6-6-6z"/></g><g id="Ellipse_8_1_" class="st0"><path class="st40" d="M115 267c-5.5 0-10-4.5-10-10s4.5-10 10-10 10 4.5 10 10-4.5 10-10 10z"/><path class="st4" d="M115 249c4.4 0 8 3.6 8 8s-3.6 8-8 8-8-3.6-8-8 3.6-8 8-8m0-4c-6.6 0-12 5.4-12 12s5.4 12 12 12 12-5.4 12-12-5.4-12-12-12z"/></g><g id="Ellipse_11_1_" class="st0"><path class="st38" d="M171.5 230.9c0 11.1-9 20.1-20 20.1-11.1 0-20-9-20-20.1 0-4.8 1.7-9.1 4.4-12.6l35.5 9.5c0 1 .1 2 .1 3.1zm-73 .1c0 11-9 20-20 20s-20-9-20-20c0-1 .1-2.1.2-3.1l35.4-9.5c2.7 3.5 4.4 7.9 4.4 12.6z"/><path class="st3" d="M151.5 245c-10 0-18-8.1-18-18.1 0-3.7 1.1-7.3 3.2-10.3l32.8 8.8c0 .5.1 1 .1 1.5-.1 10-8.2 18.1-18.1 18.1zm-73 0c-9.9 0-18-8.1-18-18 0-.5 0-1 .1-1.5l32.7-8.8c2.1 3 3.2 6.5 3.2 10.2 0 10-8.1 18.1-18 18.1z"/><path class="st4" d="M137.5 218.9l30 8.1c0 8.9-7.2 16.1-16 16.1s-16-7.2-16-16.1c-.1-3 .6-5.7 2-8.1m-45.1.2c1.4 2.4 2.1 5.1 2.1 7.9 0 8.8-7.2 16-16 16s-16-7.1-16-15.9l29.9-8m43.4-4.8c-2.8 3.4-4.4 7.8-4.4 12.6 0 11.1 9 20.1 20 20.1 11.1 0 20-9 20-20.1 0-1-.1-2.1-.2-3l-35.4-9.6zm-41.7.2L58.7 224c-.2 1-.2 2-.2 3.1 0 11 9 20 20 20s20-9 20-20c0-4.8-1.7-9.2-4.4-12.6z"/></g><g id="Ellipse_13_1_" class="st0"><circle class="st41" cx="148" cy="228" r="8"/><path class="st4" d="M148 222c3.3 0 6 2.7 6 6s-2.7 6-6 6-6-2.7-6-6 2.7-6 6-6m0-4c-5.5 0-10 4.5-10 10s4.5 10 10 10 10-4.5 10-10-4.5-10-10-10z"/></g><g id="Ellipse_13_copy_1_" class="st0"><circle class="st41" cx="83" cy="228" r="8"/><path class="st4" d="M83 222c3.3 0 6 2.7 6 6s-2.7 6-6 6-6-2.7-6-6 2.7-6 6-6m0-4c-5.5 0-10 4.5-10 10s4.5 10 10 10 10-4.5 10-10-4.5-10-10-10z"/></g><g id="Ellipse_14_1_" class="st0"><path class="st25" d="M83 222c-1.7 0-3 1.3-3 3s1.3 3 3 3 3-1.3 3-3-1.3-3-3-3zm65 0c-1.7 0-3 1.3-3 3s1.3 3 3 3 3-1.3 3-3-1.3-3-3-3z" id="Ellipse_14"/></g></svg>